<svg id="Capa_1" enable-background="new 0 0 512 512" height="512" viewBox="0 0 512 512" width="512" xmlns="http://www.w3.org/2000/svg"><g><g><circle cx="256" cy="256" fill="#b6e337" r="256"/><path d="m512 256c0 87.11-43.52 164.07-110 210.31-41.41 28.8-91.73 45.69-146 45.69s-104.59-16.89-146-45.69c-66.48-46.24-110-123.2-110-210.31 0-46.22 12.25-89.57 33.68-127 44.12 77.07 127.16 129 222.32 129s178.21-51.93 222.32-129c21.43 37.43 33.68 80.78 33.68 127z" fill="#6cdc2d"/></g><g><path d="m402.84 465.72c-41.57 29.16-92.21 46.28-146.84 46.28s-105.27-17.12-146.84-46.28l.7-5.21c9.83-73.2 72.29-75.773 146.14-75.773s136.31 2.574 146.14 75.773z" fill="#374c81"/><path d="m402.84 465.72c-41.57 29.16-92.21 46.28-146.84 46.28v-116.755c73.85 0 136.31-7.934 146.14 65.265z" fill="#234177"/><path d="m139.57 389.65c-15.56 19.99-26.13 44.19-29.71 70.86l-.164 1.223h292.609l-.165-1.223c-3.63-27.06-14.47-51.58-30.41-71.75 43.67-38.11 63.35-97.83 49.52-155.37l-2.43-10.12c-20.43-73.03-86.98-123.53-162.82-123.53-37.92 0-73.52 12.62-102.19 34.38-28.67 21.75-50.41 52.64-60.63 89.15-5.04 15.79-7.46 31.9-7.46 47.81 0 45.07 19.43 88.52 53.85 118.57z" fill="#65b2fe"/><path d="m402.305 461.733-.165-1.223c-3.63-27.06-14.47-51.58-30.41-71.75 43.67-38.11 63.35-97.83 49.52-155.37l-2.43-10.12c-20.43-73.03-86.98-123.53-162.82-123.53v361.993z" fill="#0e9ce7"/><g><path d="m237.406 364.213c-2.818 13.292-12.801 26.873-27.907 35.91-15.106 9.036-31.794 11.41-44.85 7.614 2.83-13.299 12.813-26.88 27.919-35.916 15.106-9.037 31.794-11.411 44.838-7.608z" fill="#8fc8f5"/><path d="m274.594 364.213c2.818 13.292 12.801 26.873 27.907 35.91 15.106 9.036 31.794 11.41 44.85 7.614-2.83-13.299-12.813-26.88-27.919-35.916-15.106-9.037-31.794-11.411-44.838-7.608z" fill="#65b2fe"/></g><g><path d="m409.351 341.74h-306.702c-8.109 0-14.075-7.597-12.152-15.474l20.563-84.256c10.64-30.93 30.52-56.79 55.92-74.91 25.39-18.12 56.3-28.5 89.02-28.5 65.43 0 123.65 41.54 144.94 103.41l20.563 84.256c1.923 7.877-4.043 15.474-12.152 15.474z" fill="#4e689b"/><path d="m409.351 341.74h-153.351v-203.14c65.43 0 123.65 41.54 144.94 103.41l20.563 84.256c1.923 7.877-4.043 15.474-12.152 15.474z" fill="#374c81"/><path d="m110.63 191.472c.925 1.75 1.911 3.482 2.954 5.196 7.757 12.75 17.907 23.15 29.524 30.978 1.357-2.389 2.786-4.725 4.286-7.007 9.407-14.343 21.503-26.567 35.46-36.082.004-.004.007-.004.011-.007 3.157-2.154 6.414-4.168 9.753-6.036-2.407-8.089-5.882-16.003-10.475-23.553-3.782-6.218-8.132-11.875-12.946-16.95-13.511-14.243-30.66-23.878-49.063-28.325-8.135-1.966-16.288 3.083-18.273 11.213-5.642 23.1-3.1 48.198 8.769 70.573z" fill="#4e689b"/><path d="m130.476 146.455c-4.936 20.118-2.393 41.399 7.425 59.91l.011.021c.771 1.461 1.614 2.939 2.504 4.4 2.114 3.475 4.443 6.761 6.979 9.853 9.407-14.343 21.503-26.567 35.46-36.082-3.114-5.075-6.746-9.818-10.803-14.093-11.273-11.881-25.733-20.177-41.576-24.009z" fill="#fff"/><g><path d="m401.372 191.472c-.925 1.75-1.911 3.482-2.954 5.196-7.757 12.75-17.907 23.15-29.525 30.978-1.357-2.389-2.786-4.725-4.286-7.007-9.407-14.343-21.503-26.567-35.46-36.082-.004-.004-.007-.004-.011-.007-3.157-2.154-6.414-4.168-9.753-6.036 2.407-8.089 5.882-16.003 10.475-23.553 3.782-6.218 8.132-11.875 12.946-16.95 13.511-14.243 30.66-23.878 49.063-28.325 8.135-1.966 16.288 3.083 18.274 11.213 5.641 23.1 3.1 48.198-8.769 70.573z" fill="#374c81"/></g><path d="m383.98 341.74h-39.94c-24.92 0-45.13 20.21-45.13 45.14v30.03c0 11.85-4.8 22.58-12.57 30.34-6.73 6.74-15.7 11.25-25.69 12.32-1.53.17-3.08.25-4.65.25s-3.12-.08-4.65-.25c-21.51-2.32-38.26-20.53-38.26-42.66v-30.03c0-24.93-20.21-45.14-45.13-45.14h-39.94l16.18-49.54c7.74-23.71 22.53-43.67 41.59-57.85 20.35-15.13 48.11-4.4 55.2 17.76 1.05 3.28 3.08 6.05 5.71 7.99 2.63 1.95 5.86 3.08 9.3 3.08 6.89 0 12.91-4.5 15.01-11.07 7.09-22.16 34.86-32.89 55.2-17.76 19.06 14.18 33.84 34.14 41.59 57.85z" fill="#fff"/><path d="m383.98 341.74h-39.94c-24.92 0-45.13 20.21-45.13 45.14v30.03c0 11.85-4.8 22.58-12.57 30.34-6.73 6.74-15.7 11.25-25.69 12.32-1.53.17-3.08.25-4.65.25v-196.64c6.89 0 12.91-4.5 15.01-11.07 7.09-22.16 34.86-32.89 55.2-17.76 19.06 14.18 33.84 34.14 41.59 57.85z" fill="#d1f6ff"/><g><path d="m260.652 408.838v50.731c-1.529.164-3.078.25-4.65.25-1.571 0-3.125-.086-4.654-.254v-50.728h9.304z" fill="#8fc8f5"/><ellipse cx="256" cy="422.91" fill="#4e689b" rx="22.28" ry="18.71"/><path d="m278.28 422.91c0 10.34-9.98 18.71-22.28 18.71v-37.42c12.3 0 22.28 8.38 22.28 18.71z" fill="#374c81"/><g><circle cx="248.394" cy="428.621" fill="#374c81" r="5.708"/><circle cx="263.606" cy="428.621" fill="#234177" r="5.708"/></g></g><g><g><ellipse cx="217.068" cy="316.522" fill="#323b5a" rx="12.852" ry="12.852" transform="matrix(.707 -.707 .707 .707 -160.237 246.197)"/></g><g><ellipse cx="294.932" cy="316.522" fill="#323b5a" rx="12.852" ry="12.852" transform="matrix(.707 -.707 .707 .707 -137.431 301.256)"/></g></g><path d="m339.951 170.465c-4.057 4.275-7.689 9.018-10.803 14.093 13.957 9.514 26.053 21.739 35.46 36.082 2.536-3.093 4.864-6.378 6.978-9.853.889-1.461 1.732-2.939 2.504-4.4l.011-.021c9.818-18.51 12.361-39.792 7.425-59.91-15.843 3.831-30.304 12.127-41.575 24.009z" fill="#d1f6ff"/></g></g></g></svg>