<svg id="Icons" enable-background="new 0 0 512 512" height="512" viewBox="0 0 512 512" width="512" xmlns="http://www.w3.org/2000/svg"><g><circle cx="256" cy="256" fill="#6c53a2" r="256"/><g><g><path d="m459.2 289.56-91.58 152.09c-12.32 20.46-34.46 32.98-58.36 32.98h-106.46c-23.92 0-46.09-12.55-58.41-33.06l-91.63-152.65c-9.9-16.48-12.37-36.36-6.81-54.76l40.16-132.98c8.68-28.76 35.17-48.43 65.21-48.43h209.32c30.06 0 56.56 19.7 65.23 48.48l40.21 133.54c5.54 18.42 3.04 38.31-6.88 54.79z" fill="#bf5e39"/><path d="m459.2 289.56-91.58 152.09c-12.32 20.46-34.46 32.98-58.36 32.98h-53.26v-421.88h104.64c30.06 0 56.56 19.7 65.23 48.48l40.21 133.54c5.54 18.42 3.04 38.31-6.88 54.79z" fill="#dd5e26"/></g><g><g><path d="m413.234 132.601-17.121-25.594c-11.48-17.147-35.764-19.53-50.355-4.939l-35.661 35.661c-5.318-1.769-88.196-.597-95.949-.913-4.162 0-8.251.313-12.247.913l-35.661-35.661c-14.591-14.591-38.875-12.208-50.355 4.939l-17.12 25.594c-8.693 12.983-6.998 30.302 4.052 41.351l30.664 30.664c-2.141 7.319-.937 88.261-1.21 97.779 0 45.222 36.655 81.876 81.877 81.876h83.702c45.222 0 81.877-36.655 81.877-81.877-.313-9.868 1.066-90.018-1.21-97.779l30.664-30.664c11.051-11.048 12.746-28.367 4.053-41.35z" fill="#f9c744"/><path d="m409.183 173.955-30.663 30.663c2.257 7.293.85 88.275 1.208 97.775 0 45.221-36.655 81.876-81.877 81.876h-41.851v-247.456c9.274.264 45.594-.765 54.098.918l35.663-35.663c14.587-14.596 38.874-12.209 50.352 4.934l17.124 25.598c8.688 12.986 6.994 30.307-4.054 41.355z" fill="#fbcb74"/></g><g><path d="m330.659 307.096v35.641c0 6.863 7.213 11.336 13.361 8.284l12.98-6.444c2.769-1.375 4.668-4.042 5.061-7.108l4.609-35.96c.89-6.943-5.958-12.32-12.492-9.808l-17.589 6.763c-3.573 1.373-5.93 4.805-5.93 8.632z" fill="#fbd9a3"/><path d="m181.341 307.096v35.641c0 6.863-7.213 11.336-13.361 8.284l-12.98-6.444c-2.769-1.375-4.668-4.042-5.061-7.108l-4.609-35.96c-.89-6.943 5.958-12.32 12.492-9.808l17.589 6.763c3.573 1.373 5.93 4.805 5.93 8.632z" fill="#fbcb74"/></g><g><g><path d="m314.404 318.471v65.015c0 21.347-17.311 38.658-38.658 38.658h-39.492c-21.347 0-38.658-17.312-38.658-38.668v-65.005c0-12.621 6.048-23.828 15.402-30.887 6.32-4.756 10.168-12.097 10.168-20.008v-15.158c0-9.072 7.35-16.432 16.422-16.432h32.826c9.072 0 16.422 7.359 16.422 16.432v15.158c0 7.911 3.848 15.252 10.168 20.008 9.352 7.059 15.4 18.266 15.4 30.887z" fill="#fbcb74"/><path d="m314.404 318.471v65.015c0 21.347-17.311 38.658-38.658 38.658h-19.746v-186.158h16.413c9.072 0 16.422 7.359 16.422 16.432v15.158c0 7.911 3.848 15.252 10.168 20.008 9.353 7.059 15.401 18.266 15.401 30.887z" fill="#fbd9a3"/></g><path d="m315.847 380.537c-1.62-.796-3.585-.126-4.384 1.495-.085.173-8.691 17.289-23.164 17.289-11.411-.265-24.195 1.286-27.903-7.979 7.681-1.834 13.441-9.244 13.328-17.153-.186-3.36 2.49-6.248 5.87-6.237h3.688c2.586 0 4.681-2.096 4.681-4.681s-2.096-4.681-4.681-4.681h-3.688c-8.399 0-15.233 6.833-15.233 15.233.193 3.698-2.318 7.3-5.869 8.345-1.172-1.536-3.814-1.535-4.986.001-3.414-1.08-5.864-4.459-5.864-8.346 0-8.399-6.834-15.233-15.233-15.233h-3.688c-2.586 0-4.681 2.096-4.681 4.681s2.096 4.681 4.681 4.681h3.688c3.237 0 5.87 2.633 5.87 5.87 0 8.322 5.614 15.556 13.318 17.535-3.702 9.241-16.493 7.699-27.897 7.964-14.474 0-23.079-17.116-23.165-17.29-.795-1.622-2.757-2.295-4.381-1.5-1.626.795-2.3 2.758-1.505 4.383.557 1.601 12.107 22.494 31.038 20.962 11.918-.033 24.251.286 30.311-8.822 6.307 9.618 20.161 8.762 32.299 8.82 18.589 0 28.631-20.104 29.05-20.96.795-1.622.123-3.58-1.5-4.377z" fill="#f39e22"/><g><g><g><path d="m378.356 385.559c-16.851-28.824-56.48-26.461-89.282-12.864-1.676.674-2.5 2.574-1.835 4.26.674 1.676 2.575 2.5 4.26 1.835 17.714-7.041 33.631-10.093 47.001-9.1 16.552.807 29.701 10.316 33.921 18.651 1.939 3.874 7.676 1.173 5.935-2.782z" fill="#f4e6f4"/><path d="m378.356 385.559c1.731 3.944-3.973 6.667-5.936 2.781-4.24-8.359-17.384-17.841-33.921-18.65-.496-2.21-.908-4.447-1.208-6.722 19.783.586 35.93 11.968 41.065 22.591z" fill="#fff"/></g><g><path d="m393.808 345.397c-23.527-23.691-61.304-11.486-89.661 9.886-1.454 1.072-1.776 3.118-.711 4.583 1.072 1.454 3.118 1.776 4.584.711 15.389-11.249 30.035-18.187 43.228-20.572 16.227-3.36 31.338 2.556 37.509 9.569 2.847 3.268 7.726-.783 5.051-4.177z" fill="#f4e6f4"/><path d="m393.808 345.397c2.663 3.386-2.179 7.449-5.051 4.178-6.197-7.033-21.295-12.923-37.509-9.569-1.033-2.015-1.992-4.079-2.852-6.206 19.301-4.382 37.782 2.597 45.412 11.597z" fill="#fff"/></g></g><g><g><path d="m135.217 389.922c1.606.756 3.584.08 4.363-1.582 4.29-8.42 17.411-17.833 33.921-18.65 13.37-.993 29.286 2.059 47.001 9.1 1.685.665 3.586-.159 4.26-1.835.665-1.685-.159-3.586-1.835-4.26-26.111-9.844-47.962-14.227-70.417-4.336-13.763 6.573-18.66 16.769-18.866 17.2-.768 1.639-.066 3.586 1.573 4.363z" fill="#f4e6f4"/><path d="m133.644 385.559c-1.731 3.944 3.973 6.667 5.936 2.781 4.24-8.359 17.384-17.841 33.921-18.65.496-2.21.908-4.447 1.208-6.722-19.783.586-35.93 11.968-41.065 22.591z" fill="#fff"/></g><g><path d="m118.623 350.015c1.366 1.134 3.45.974 4.62-.44 6.211-7.058 21.37-12.919 37.509-9.569 13.193 2.384 27.839 9.322 43.228 20.572 1.465 1.065 3.512.743 4.584-.711 1.065-1.465.743-3.512-.711-4.584-22.817-16.064-42.877-25.776-67.092-21.818-14.97 2.92-22.262 11.567-22.57 11.932-1.153 1.395-.96 3.456.432 4.618z" fill="#f4e6f4"/><path d="m118.192 345.397c-2.663 3.386 2.179 7.449 5.051 4.178 6.197-7.033 21.295-12.923 37.509-9.569 1.033-2.015 1.992-4.079 2.852-6.206-19.301-4.382-37.782 2.597-45.412 11.597z" fill="#fff"/></g></g></g><g><g><path d="m242.962 371.014c.638 17.927 25.739 17.663 26.081 0 0-5.827 4.724-10.551 10.551-10.551h3.689c7.202 0 13.041-5.839 13.041-13.041s-5.838-13.041-13.041-13.041h-54.561c-7.202 0-13.041 5.838-13.041 13.041 0 7.202 5.838 13.041 13.041 13.041h3.689c5.827 0 10.551 4.724 10.551 10.551z" fill="#ea792e"/></g><g><path d="m277.092 352.244h-30.745c-11.834-.453-11.846-17.404 0-17.863h30.745c11.834.454 11.846 17.404 0 17.863z" fill="#f39e22"/></g></g><g><path d="m283.283 304.352v30.026h-27.283v-57.309c15.065 0 27.283 12.219 27.283 27.283z" fill="#fbcb74"/><path d="m228.719 304.352v30.026h27.283v-57.309c-15.064 0-27.283 12.219-27.283 27.283z" fill="#f9c744"/></g></g><g><g><g><path d="m347.288 257.994c-1.956-11.091-24.233-16.433-35.324-14.478-11.091 1.956-18.496 12.532-16.541 23.623s12.532 18.496 23.623 16.541c11.091-1.956 30.197-14.596 28.242-25.686z" fill="#dd5e26"/></g><g><path d="m324.069 252.935 3.13 17.753c.367 2.083-.149 4.123-1.269 5.734-3.797 5.535-12.71 3.637-13.841-3.069 0 0-3.13-17.753-3.13-17.753-1.392-10.043 12.934-12.65 15.11-2.665z" fill="#3e4e60"/></g><g><path d="m324.069 252.935 3.13 17.753c.37 2.127-.162 4.216-1.35 5.839-3.541-.127-6.631-2.705-7.271-6.334l-3.13-17.753c-.376-2.131.173-4.219 1.357-5.84 3.535.128 6.624 2.706 7.264 6.335z" fill="#2e3140"/></g><g><path d="m334.787 254.993c-.697-3.955-4.469-6.596-8.423-5.898-9.43 2.041-7.031 15.63 2.525 14.322 3.955-.698 6.595-4.469 5.898-8.424z" fill="#fff"/></g></g><g><g><path d="m165.712 257.994c1.956-11.091 24.233-16.433 35.324-14.478 11.091 1.956 18.496 12.532 16.541 23.623-1.956 11.091-12.532 18.496-23.623 16.541-11.091-1.956-30.197-14.596-28.242-25.686z" fill="#dd5e26"/></g><g><path d="m204.04 255.599-3.13 17.753c-.367 2.083-1.55 3.824-3.153 4.954-5.461 3.902-13.187-.93-11.956-7.618 0 0 3.13-17.753 3.13-17.753 2.125-9.913 16.479-7.463 15.109 2.664z" fill="#3e4e60"/></g><g><path d="m204.04 255.599-3.13 17.753c-.379 2.125-1.594 3.906-3.265 5.025-3.284-1.331-5.306-4.81-4.666-8.439l3.13-17.753c.376-2.131 1.605-3.905 3.273-5.023 3.276 1.329 5.298 4.808 4.658 8.437z" fill="#2e3140"/></g><g><path d="m198.35 258.544c.697-3.955 4.469-6.596 8.423-5.898 9.43 2.041 7.031 15.63-2.525 14.322-3.954-.698-6.595-4.469-5.898-8.424z" fill="#fff"/></g></g></g><g><path d="m307.741 192.416h-9.661c-8.044 0-14.565 6.521-14.565 14.565v12.951c0 8.044 6.521 14.565 14.565 14.565h9.661c8.044 0 14.565-6.521 14.565-14.565v-12.952c0-8.043-6.521-14.564-14.565-14.564z" fill="#f9c744"/><path d="m213.92 192.416h-9.661c-8.044 0-14.565 6.521-14.565 14.565v12.951c0 8.044 6.521 14.565 14.565 14.565h9.661c8.044 0 14.565-6.521 14.565-14.565v-12.952c0-8.043-6.521-14.564-14.565-14.564z" fill="#f39e22"/></g><g><path d="m276.511 162.161v36.264c0 11.328-9.183 20.511-20.511 20.511v-77.286c11.326 0 20.511 9.186 20.511 20.511z" fill="#fbd9a3"/><path d="m235.491 162.161v36.264c0 11.328 9.183 20.511 20.511 20.511v-77.286c-11.325 0-20.511 9.186-20.511 20.511z" fill="#fbcb74"/></g><g><g><path d="m353.679 188.925-27.127-27.127c-4.103-4.103-4.103-10.755 0-14.859l17.063-17.063c9.055-9.055 24.128-7.576 31.25 3.067l10.627 15.881c5.393 8.059 4.338 18.807-2.519 25.664l-14.436 14.436c-4.102 4.104-10.755 4.104-14.858.001z" fill="#f9c744"/></g><g><path d="m158.321 188.925 27.127-27.127c4.103-4.103 4.103-10.755 0-14.859l-17.063-17.063c-9.055-9.055-24.128-7.576-31.25 3.067l-10.627 15.881c-5.393 8.059-4.338 18.807 2.519 25.664l14.436 14.436c4.102 4.104 10.755 4.104 14.858.001z" fill="#f39e22"/></g></g></g><g><path d="m166.723 80.764c-7.43-7.43-11.604-17.507-11.604-28.014h100.881v91.643 33.414c0 6.918-4.222 13.136-10.652 15.689l-110.076 43.688c-.973.386-1.977.677-3 .877v64.606h-22.063c-14.017 0-26.965-7.489-33.955-19.638l-6.874-11.947c-3.419-5.943-5.219-12.68-5.219-19.536v-30.191h.008c.016-1.545.24-3.121.712-4.696 0-6.65 5.391-12.042 12.042-12.042 31.358.229 53.524 2.22 78.079-21.519 0 0 25.656-25.656 25.656-25.656 17.327-17.327 17.326-45.418 0-62.745z" fill="#dd5e26"/><path d="m345.28 80.764c7.43-7.43 11.604-17.507 11.604-28.014h-100.881v91.643 33.414c0 6.918 4.222 13.136 10.652 15.689l110.076 43.688c.973.386 1.977.677 3 .876v64.606h22.064c14.017 0 26.965-7.489 33.955-19.638l6.874-11.947c3.419-5.943 5.219-12.68 5.219-19.536v-30.191h-.008c-.016-1.545-.24-3.121-.712-4.696 0-6.65-5.391-12.042-12.042-12.042-31.331.237-53.565 2.202-78.079-21.518 0 0-25.656-25.656-25.656-25.656-17.326-17.326-17.326-45.418 0-62.745z" fill="#ea792e"/></g><g><path d="m256 467.256h67.513c10.446 0 18.915-8.468 18.915-18.915 0-10.446-8.468-18.915-18.915-18.915h-67.513z" fill="#ea792e"/><path d="m256.003 429.427h-67.513c-10.446 0-18.915 8.468-18.915 18.915 0 10.446 8.468 18.915 18.915 18.915h67.513z" fill="#dd5e26"/></g></g></g></svg>